<svg width="24" height="24" viewBox="0 0 24 24" fill="none" xmlns="http://www.w3.org/2000/svg">
<mask id="mask0_965_124" style="mask-type:alpha" maskUnits="userSpaceOnUse" x="0" y="0" width="24" height="24">
<rect width="24" height="24" fill="#D9D9D9"/>
</mask>
<g mask="url(#mask0_965_124)">
<path d="M16.7752 19.5751C16.5919 19.6918 16.4085 19.8001 16.2252 19.9001C16.0419 20.0001 15.8502 20.0918 15.6502 20.1751C15.4002 20.2918 15.146 20.2918 14.8877 20.1751C14.6294 20.0584 14.4502 19.8668 14.3502 19.6001C14.2502 19.3501 14.2627 19.1043 14.3877 18.8626C14.5127 18.6209 14.7002 18.4418 14.9502 18.3251C15.0169 18.2918 15.0794 18.2584 15.1377 18.2251C15.196 18.1918 15.2585 18.1584 15.3252 18.1251L12.0002 14.8001V17.5751C12.0002 18.0251 11.796 18.3376 11.3877 18.5126C10.9794 18.6876 10.6169 18.6168 10.3002 18.3001L7.0002 15.0001H4.0002C3.71686 15.0001 3.47936 14.9043 3.2877 14.7126C3.09603 14.5209 3.0002 14.2834 3.0002 14.0001V10.0001C3.0002 9.71676 3.09603 9.47926 3.2877 9.2876C3.47936 9.09593 3.71686 9.0001 4.0002 9.0001H6.2002L2.1002 4.9001C1.91686 4.71676 1.8252 4.48343 1.8252 4.2001C1.8252 3.91676 1.91686 3.68343 2.1002 3.5001C2.28353 3.31676 2.51686 3.2251 2.8002 3.2251C3.08353 3.2251 3.31686 3.31676 3.5002 3.5001L20.5002 20.5001C20.6835 20.6834 20.7752 20.9168 20.7752 21.2001C20.7752 21.4834 20.6835 21.7168 20.5002 21.9001C20.3169 22.0834 20.0835 22.1751 19.8002 22.1751C19.5169 22.1751 19.2835 22.0834 19.1002 21.9001L16.7752 19.5751ZM19.0002 11.9751C19.0002 10.5918 18.6335 9.32926 17.9002 8.1876C17.1669 7.04593 16.1835 6.19176 14.9502 5.6251C14.7002 5.50843 14.5169 5.32926 14.4002 5.0876C14.2835 4.84593 14.2669 4.6001 14.3502 4.3501C14.4502 4.08343 14.6294 3.89176 14.8877 3.7751C15.146 3.65843 15.4085 3.65843 15.6752 3.7751C17.2919 4.49176 18.5835 5.58343 19.5502 7.0501C20.5169 8.51676 21.0002 10.1584 21.0002 11.9751C21.0002 12.5251 20.9502 13.0709 20.8502 13.6126C20.7502 14.1543 20.6085 14.6751 20.4252 15.1751C20.2919 15.5418 20.0877 15.7709 19.8127 15.8626C19.5377 15.9543 19.2835 15.9584 19.0502 15.8751C18.8169 15.7918 18.6294 15.6418 18.4877 15.4251C18.346 15.2084 18.3419 14.9584 18.4752 14.6751C18.6585 14.2418 18.7919 13.8043 18.8752 13.3626C18.9585 12.9209 19.0002 12.4584 19.0002 11.9751ZM14.7752 8.4251C15.3252 8.7751 15.7502 9.3001 16.0502 10.0001C16.3502 10.7001 16.5002 11.3668 16.5002 12.0001V12.2501C16.5002 12.3334 16.4919 12.4168 16.4752 12.5001C16.4419 12.7168 16.3252 12.8584 16.1252 12.9251C15.9252 12.9918 15.7419 12.9418 15.5752 12.7751L14.3002 11.5001C14.2002 11.4001 14.1252 11.2876 14.0752 11.1626C14.0252 11.0376 14.0002 10.9084 14.0002 10.7751V8.8501C14.0002 8.6501 14.0877 8.50426 14.2627 8.4126C14.4377 8.32093 14.6085 8.3251 14.7752 8.4251ZM9.7502 6.9501C9.6502 6.8501 9.6002 6.73343 9.6002 6.6001C9.6002 6.46676 9.6502 6.3501 9.7502 6.2501L10.3002 5.7001C10.6169 5.38343 10.9794 5.3126 11.3877 5.4876C11.796 5.6626 12.0002 5.9751 12.0002 6.4251V8.0001C12.0002 8.23343 11.9002 8.39176 11.7002 8.4751C11.5002 8.55843 11.3169 8.51676 11.1502 8.3501L9.7502 6.9501Z" fill="#1C1B1F"/>
</g>
</svg>
